#!OML:ASF H:\Pregnant\Project 1\Capture day 1\Session 1\femalepreg.ASF
:FULLY-SPECIFIED
:DEGREES
288
root 3.51692 15.7988 31.4071 2.88897 -86.3983 55.007
lowerback 1.03167 3.65551 2.76115
upperback 7.11109 4.28317 3.82403
thorax 6.74858 2.02364 2.64828
lowerneck -13.3736 6.8672 9.52405
upperneck 28.3995 4.90073 4.58735
head 11.7443 3.53046 0.739117
rclavicle -1.20861e-013 -5.96354e-014
rhumerus -17.1389 59.5734 -82.4212
rradius 86.9244
rwrist -53.5992
rhand 31.292 -12.7443
rfingers 7.12502
rthumb 54.8646 -30.9805
lclavicle -1.20861e-013 -5.96354e-014
lhumerus -41.9804 -16.9399 74.8803
lradius 41.1184
lwrist 57.4409
lhand -5.94779 0.836597
lfingers 7.12502
lthumb 19.8825 29.8395
rfemur -82.327 9.38398 0.453427
rtibia 29.5366
rfoot -1.63442 -18.9488
rtoes 6.19177
lfemur 0 0 0
ltibia 0
lfoot 0 0
ltoes 0
289
root 3.50357 15.8086 31.4116 1.56806 -86.4553 55.6212
lowerback 0.731066 3.63382 2.72849
upperback 6.96367 4.26286 3.77992
thorax 6.76401 2.01779 2.63282
lowerneck -13.4186 6.76772 9.39576
upperneck 28.3679 4.80632 4.58188
head 11.7315 3.4759 0.744323
rclavicle -2.54444e-014 1.66979e-014
rhumerus -17.2453 59.5024 -82.6575
rradius 86.7827
rwrist -53.4809
rhand 31.0679 -13.2237
rfingers 7.12502
rthumb 54.6644 -31.6024
lclavicle -2.54444e-014 1.66979e-014
lhumerus -42.1206 -16.9491 75.0333
lradius 41.069
lwrist 56.9512
lhand -6.54989 0.809834
lfingers 7.12502
lthumb 19.3037 29.8717
rfemur -81.5508 9.6945 0.555811
rtibia 29.5717
rfoot -1.7823 -18.9648
rtoes 6.18686
lfemur 0 0 0
ltibia 0
lfoot 0 0
ltoes 0
290
root 3.48931 15.818 31.4161 0.238566 -86.5136 56.2304
lowerback 0.426877 3.61547 2.694
upperback 6.8134 4.24712 3.73485
thorax 6.77848 2.01409 2.61766
lowerneck -13.4622 6.66507 9.26899
upperneck 28.317 4.71144 4.57075
head 11.7111 3.42028 0.746611
rclavicle -5.24792e-014 3.4191e-014
rhumerus -17.3794 59.4084 -82.8853
rradius 86.6699
rwrist -53.357
rhand 30.6459 -14.0358
rfingers 7.12502
rthumb 54.2867 -32.6781
lclavicle -5.24792e-014 3.4191e-014
lhumerus -42.2559 -16.9771 75.1858
lradius 41.0174
lwrist 56.4406
lhand -7.13258 0.76518
lfingers 7.12502
lthumb 18.7433 29.8822
rfemur -80.7513 10.0121 0.666903
rtibia 29.5984
rfoot -1.93398 -18.9805
rtoes 6.19512
lfemur 0 0 0
ltibia 0
lfoot 0 0
ltoes 0
291
root 3.47418 15.827 31.4206 -1.0799 -86.5746 56.8186
lowerback 0.119499 3.59353 2.66242
upperback 6.65777 4.22705 3.68576
thorax 6.78985 2.00863 2.59634
lowerneck -13.5046 6.56699 9.14412
upperneck 28.2592 4.6261 4.55088
head 11.6883 3.36794 0.7466
rclavicle -3.18055e-015 7.95139e-015
rhumerus -17.5197 59.3059 -83.1182
rradius 86.5606
rwrist -53.2348
rhand 29.9197 -15.2457
rfingers 7.12502
rthumb 53.6348 -34.3277
lclavicle -3.18055e-015 7.95139e-015
lhumerus -42.3975 -17.0206 75.323
lradius 40.9701
lwrist 55.9405
lhand -7.66495 0.716112
lfingers 7.12502
lthumb 18.2312 29.8817
rfemur -79.9328 10.3364 0.787397
rtibia 29.6163
rfoot -2.08909 -18.9966
rtoes 6.21537
lfemur 0 0 0
ltibia 0
lfoot 0 0
ltoes 0
292
root 3.45818 15.8361 31.425 -2.39069 -86.6451 57.3893
lowerback -0.186564 3.57067 2.63149
upperback 6.49685 4.20597 3.63757
thorax 6.79499 2.00265 2.57509
lowerneck -13.5516 6.47191 9.0155
upperneck 28.2019 4.5516 4.51258
head 11.6672 3.31812 0.742227
rclavicle 2.06736e-014 -3.26007e-014
rhumerus -17.6577 59.1974 -83.357
rradius 86.439
rwrist -53.1254
rhand 28.8928 -16.7573
rfingers 7.12502
rthumb 52.7088 -36.4323
lclavicle 2.06736e-014 -3.26007e-014
lhumerus -42.545 -17.0784 75.4556
lradius 40.9272
lwrist 55.4575
lhand -8.14794 0.670826
lfingers 7.12502
lthumb 17.7665 29.8792
rfemur -79.0972 10.6742 0.917613
rtibia 29.626
rfoot -2.24978 -19.0151
rtoes 6.24675
lfemur 0 0 0
ltibia 0
lfoot 0 0
ltoes 0
293
root 3.44141 15.8451 31.4294 -3.78424 -86.7189 58.0349
lowerback -0.492934 3.53865 2.60723
upperback 6.33269 4.17303 3.58284
thorax 6.79825 1.99147 2.54235
lowerneck -13.6024 6.38609 8.88367
upperneck 28.1459 4.49624 4.45622
head 11.6479 3.27454 0.734728
rclavicle 4.6118e-014 -4.85035e-014
rhumerus -17.7885 59.0933 -83.6057
rradius 86.3132
rwrist -53.0424
rhand 27.6175 -18.3867
rfingers 7.12502
rthumb 51.5527 -38.7543
lclavicle 4.6118e-014 -4.85035e-014
lhumerus -42.701 -17.1457 75.5662
lradius 40.8974
lwrist 55.0151
lhand -8.58515 0.639463
lfingers 7.12502
lthumb 17.3457 29.8854
rfemur -78.2458 11.0185 1.05264
rtibia 29.6284
rfoot -2.40833 -19.0358
rtoes 6.26812
lfemur 0 0 0
ltibia 0
lfoot 0 0
ltoes 0
294
root 3.42383 15.8542 31.4339 -5.25932 -86.7972 58.7551
lowerback -0.798558 3.51034 2.58614
upperback 6.1644 4.14488 3.52861
thorax 6.79695 1.9827 2.50828
lowerneck -13.6608 6.29342 8.73339
upperneck 28.0837 4.43719 4.39815
head 11.6269 3.22738 0.72919
rclavicle -6.20208e-014 -3.33958e-014
rhumerus -17.9243 58.9613 -83.8551
rradius 86.1759
rwrist -52.9865
rhand 26.2809 -19.8916
rfingers 7.12502
rthumb 50.3345 -40.9369
lclavicle -6.20208e-014 -3.33958e-014
lhumerus -42.8402 -17.193 75.6788
lradius 40.8528
lwrist 54.5614
lhand -8.97978 0.611685
lfingers 7.12502
lthumb 16.9659 29.8907
rfemur -77.3801 11.37 1.19305
rtibia 29.6248
rfoot -2.57327 -19.0592
rtoes 6.30669
lfemur 0 0 0
ltibia 0
lfoot 0 0
ltoes 0
295
root 3.40534 15.8631 31.4384 -6.90928 -86.8766 59.6441
lowerback -1.1014 3.48332 2.56272
upperback 5.99117 4.11892 3.47252
thorax 6.7888 1.97492 2.47313
lowerneck -13.7244 6.19748 8.57774
upperneck 28.0184 4.37889 4.32823
head 11.6058 3.17875 0.720438
rclavicle 2.70347e-014 2.8625e-014
rhumerus -18.0726 58.7951 -84.1161
rradius 86.024
rwrist -52.9523
rhand 25.0168 -21.1594
rfingers 7.12502
rthumb 49.1766 -42.804
lclavicle 2.70347e-014 2.8625e-014
lhumerus -42.9691 -17.2227 75.7906
lradius 40.803
lwrist 54.1124
lhand -9.33332 0.59179
lfingers 7.12502
lthumb 16.6256 29.8997
rfemur -76.5025 11.7255 1.33399
rtibia 29.6197
rfoot -2.7441 -19.0844
rtoes 6.34481
lfemur 0 0 0
ltibia 0
lfoot 0 0
ltoes 0
296
root 3.3858 15.8715 31.4426 -8.67209 -86.9595 60.6378
lowerback -1.40047 3.45719 2.53892
upperback 5.81439 4.09423 3.41683
thorax 6.77475 1.96765 2.43812
lowerneck -13.7861 6.10011 8.40551
upperneck 27.9462 4.32482 4.25615
head 11.5811 3.13004 0.714028
rclavicle 4.77083e-014 1.35174e-014
rhumerus -18.235 58.5914 -84.3951
rradius 85.8506
rwrist -52.937
rhand 24.0824 -21.9971
rfingers 7.12502
rthumb 48.3174 -44.0605
lclavicle 4.77083e-014 1.35174e-014
lhumerus -43.0892 -17.2291 75.8997
lradius 40.7507
lwrist 53.6739
lhand -9.63837 0.582212
lfingers 7.12502
lthumb 16.3319 29.9145
rfemur -75.6127 12.0898 1.48135
rtibia 29.6149
rfoot -2.92317 -19.1145
rtoes 6.4041
lfemur 0 0 0
ltibia 0
lfoot 0 0
ltoes 0
